<svg xmlns="http://www.w3.org/2000/svg" viewBox="0 0 24 24" role="img" aria-label="OpenAI">
  <rect x="2.5" y="2.5" width="19" height="19" rx="5" fill="#0D0D0D"/>
  <path fill="none" stroke="#fff" stroke-width="1.7" stroke-linejoin="round" stroke-linecap="round"
    d="M12 6.4a3 3 0 0 1 5.2 1.7 3 3 0 0 1 .3 5.5 3 3 0 0 1-5.5 1.9 3 3 0 0 1-5.2-1.7 3 3 0 0 1-.3-5.5A3 3 0 0 1 12 6.4Z"/>
  <path fill="none" stroke="#fff" stroke-width="1.4" stroke-linecap="round" d="M12 9v6M9.4 10.5l5.2 3M9.4 13.5l5.2-3"/>
</svg>
